<svg width="32" height="32" viewBox="0 0 32 32" fill="none" xmlns="http://www.w3.org/2000/svg">
<path fill-rule="evenodd" clip-rule="evenodd" d="M10.9657 28.4786C10.4966 29.2682 9.77776 29.1472 9.77776 29.1472C9.77776 29.1472 11.1014 29.5118 11.7463 28.8129C12.2615 28.2545 12.5866 27.8334 12.5269 27.1111C12.4798 26.5421 12.2205 25.9877 11.9302 25.3668C11.8019 25.0924 11.6675 24.805 11.5426 24.4976C11.4766 24.3349 11.4097 24.1892 11.3416 24.054L11.3306 24.0595L11.305 24.0722C10.3912 24.5262 9.77016 24.68 8.72563 24.7103C6.97653 24.7611 5.79662 24.3523 4.55105 23.2516C3.4665 22.2933 3.05567 21.4473 2.88801 20.0912C2.7478 18.9571 3.04718 18.2435 3.46032 17.2588C3.5166 17.1247 3.575 16.9855 3.63468 16.8395C4.03812 15.8528 4.90898 14.6594 5.50335 13.9054C5.35761 13.6045 5.21143 13.2821 5.06015 12.9193C4.59687 11.8083 4.41591 11.3634 4.10984 10.0323C3.87226 8.99906 3.87226 8.057 4.34741 6.99337C4.83425 5.90361 5.5162 5.90086 5.67562 5.90021C5.68958 5.90016 5.69949 5.89978 5.705 5.89936C6.45337 5.84297 7.33428 6.62233 7.80926 7.57077C8.52433 8.99862 8.53821 9.99936 8.31836 11.5518C8.15726 12.6892 7.66126 13.4908 7.00843 14.6751L7.00825 14.6754L7.00696 14.6775C6.97422 14.7302 6.94112 14.7834 6.90769 14.8373C7.04024 15.1034 7.17521 15.3656 7.30017 15.5935C7.61685 16.1712 8.15634 17.0522 8.15634 17.0522C9.03109 16.6572 10.3627 16.72 11.305 16.9611C11.713 17.0654 13.0455 17.5102 13.5451 18.993C13.8365 19.858 13.9931 20.6181 13.7826 21.6106C13.5726 22.6015 12.9526 23.1617 12.0909 23.6579C12.3064 24.0427 12.5283 24.4571 12.7645 24.9231C12.9036 25.1977 13.0529 25.4494 13.1955 25.6897C13.6657 26.4823 14.0628 27.3036 13.7826 28.2659C13.4923 29.2631 12.644 30.1789 11.4069 30.302C9.87958 30.4539 9.16685 30.1196 8.72563 29.8157C7.72992 29.1299 8.17776 27.8212 8.48806 27.3846C8.96321 26.716 9.57412 26.6508 10.0408 26.6857C10.8542 26.7464 11.4531 27.6581 10.9657 28.4786ZM9.74382 19.7569C10.153 20.455 10.5136 21.0376 10.8542 21.588L10.8542 21.5881C11.1238 22.0237 11.381 22.4392 11.6399 22.8759C11.6608 22.8596 11.6815 22.843 11.7018 22.8262C12.3232 22.3122 12.3232 21.5513 12.3232 21.065V21.0636C12.3232 19.7569 11.5048 19.0921 10.4396 18.9364C10.0657 18.8817 9.65785 18.9172 9.2958 18.993C9.45271 19.2604 9.6068 19.5231 9.74382 19.7569ZM10.3627 22.4007C10.3627 22.4007 9.87958 22.4615 9.47231 22.4007C9.46303 22.3994 9.4535 22.398 9.44372 22.3966C9.43486 22.3954 9.42579 22.3941 9.41652 22.3928C9.12875 22.353 8.64854 22.2864 8.15634 21.6106C7.61946 20.8735 7.60562 19.9088 8.31836 19.3618C8.36948 19.3226 8.44258 19.2802 8.53286 19.2377C8.783 19.6403 9.04484 20.0693 9.33655 20.5774C9.6204 21.0718 9.81885 21.4274 10.0408 21.8252C10.1401 22.0032 10.2442 22.1896 10.3627 22.4007ZM6.11392 19.1795C6.30207 18.5091 6.95591 17.9025 7.47375 17.5102C7.32063 17.2477 7.16227 16.9672 6.99471 16.6572C6.79135 16.281 6.60446 15.9478 6.42816 15.634C6.29872 15.8556 6.16961 16.0612 6.0427 16.2634C5.71154 16.7909 5.39544 17.2944 5.12803 17.9943C5.11726 18.0225 5.10649 18.0506 5.09573 18.0787C4.66541 19.2027 4.25397 20.2773 5.16197 21.6106C6.01046 22.8566 6.65531 23.434 8.31836 23.7075C8.89995 23.8031 9.99376 23.7016 10.9053 23.3032L10.8927 23.2833C10.8835 23.2688 10.8742 23.2541 10.8649 23.2395C10.7691 23.088 10.6693 22.9302 10.5644 22.7534L10.606 22.8262C10.5693 22.9972 7.45383 23.6671 6.38379 21.7018C5.919 20.8481 5.85543 20.1006 6.11392 19.1795ZM5.77288 12.4634C5.33261 11.3866 5.33166 10.792 5.39954 9.54607C5.42438 9.09023 5.77288 8.36089 6.18016 8.057C6.65951 7.69933 7.12732 8.03475 7.30017 8.42167C7.57168 9.02945 7.33477 10.6123 7.30017 10.792C7.13047 11.6733 6.11392 13.1624 6.11392 13.1624C6.11392 13.1624 5.88724 12.7432 5.77288 12.4634Z" fill="black"/>
<path d="M6.11392 13.1624C6.11392 13.1624 5.88724 12.7432 5.77288 12.4634C5.33261 11.3866 5.33166 10.792 5.39954 9.54607C5.42438 9.09023 5.77288 8.36089 6.18016 8.057C6.65951 7.69933 7.12732 8.03475 7.30017 8.42167C7.57168 9.02945 7.33477 10.6123 7.30017 10.792C7.13047 11.6733 6.11392 13.1624 6.11392 13.1624ZM6.11392 13.1624C6.11392 13.1624 6.49939 14.0179 6.90769 14.8373M6.11392 13.1624C6.11392 13.1624 5.8578 13.4558 5.50335 13.9054M11.305 24.0722C10.3912 24.5262 9.77016 24.68 8.72563 24.7103C6.97653 24.7611 5.79662 24.3523 4.55105 23.2516C3.4665 22.2933 3.05567 21.4473 2.88801 20.0912C2.7478 18.9571 3.04718 18.2435 3.46032 17.2588C3.5166 17.1247 3.575 16.9855 3.63468 16.8395C4.03812 15.8528 4.90898 14.6594 5.50335 13.9054M11.305 24.0722C11.3136 24.0679 11.3221 24.0637 11.3306 24.0595M11.305 24.0722L11.3306 24.0595M8.15634 17.0522C8.15634 17.0522 7.61685 16.1712 7.30017 15.5935C7.17521 15.3656 7.04024 15.1034 6.90769 14.8373M8.15634 17.0522C9.03109 16.6572 10.3627 16.72 11.305 16.9611C11.713 17.0654 13.0455 17.5102 13.5451 18.993C13.8365 19.858 13.9931 20.6181 13.7826 21.6106C13.5726 22.6015 12.9526 23.1617 12.0909 23.6579M8.15634 17.0522C8.15634 17.0522 8.7435 18.0517 9.2958 18.993M8.15634 17.0522C8.15634 17.0522 7.85116 17.2243 7.47375 17.5102M10.3627 22.4007C10.3627 22.4007 9.87958 22.4615 9.47231 22.4007C9.46303 22.3994 9.4535 22.398 9.44372 22.3966C9.43486 22.3954 9.42579 22.3941 9.41652 22.3928C9.12875 22.353 8.64854 22.2864 8.15634 21.6106C7.61946 20.8735 7.60562 19.9088 8.31836 19.3618C8.36948 19.3226 8.44258 19.2802 8.53286 19.2377M10.3627 22.4007C10.2442 22.1896 10.1401 22.0032 10.0408 21.8252M10.3627 22.4007L10.5644 22.7534M12.3232 21.0636C12.3232 19.7569 11.5048 19.0921 10.4396 18.9364C10.0657 18.8817 9.65785 18.9172 9.2958 18.993M12.3232 21.0636V21.065M12.3232 21.0636C12.3232 21.0641 12.3232 21.0645 12.3232 21.065M11.3416 24.054C11.4097 24.1892 11.4766 24.3349 11.5426 24.4976C11.6675 24.805 11.8019 25.0924 11.9302 25.3668C12.2205 25.9877 12.4798 26.5421 12.5269 27.1111C12.5866 27.8334 12.2615 28.2545 11.7463 28.8129C11.1014 29.5118 9.77776 29.1472 9.77776 29.1472C9.77776 29.1472 10.4966 29.2682 10.9657 28.4786C11.4531 27.6581 10.8542 26.7464 10.0408 26.6857C9.57412 26.6508 8.96321 26.716 8.48806 27.3846C8.17776 27.8212 7.72992 29.1299 8.72563 29.8157C9.16685 30.1196 9.87958 30.4539 11.4069 30.302C12.644 30.1789 13.4923 29.2631 13.7826 28.2659C14.0628 27.3036 13.6657 26.4823 13.1955 25.6897C13.0529 25.4494 12.9036 25.1977 12.7645 24.9231C12.5283 24.4571 12.3064 24.0427 12.0909 23.6579M11.3416 24.054C11.6069 23.9218 11.8578 23.7922 12.0909 23.6579M11.3416 24.054L11.3306 24.0595M11.3416 24.054C11.338 24.0558 11.3343 24.0576 11.3306 24.0595M11.3416 24.054C11.2031 23.7788 11.0592 23.5469 10.9053 23.3032M5.50335 13.9054C5.35761 13.6045 5.21143 13.2821 5.06015 12.9193C4.59687 11.8083 4.41591 11.3634 4.10984 10.0323C3.87226 8.99906 3.87226 8.057 4.34741 6.99337C4.83425 5.90361 5.5162 5.90086 5.67562 5.90021C5.68958 5.90016 5.69949 5.89978 5.705 5.89936C6.45337 5.84297 7.33428 6.62233 7.80926 7.57077C8.52433 8.99862 8.53821 9.99936 8.31836 11.5518C8.15726 12.6892 7.66126 13.4908 7.00843 14.6751M5.50335 13.9054C5.80025 14.5183 6.09534 15.0416 6.42816 15.634M6.90769 14.8373C6.76133 15.0734 6.5068 15.3225 6.34986 15.5935C6.34202 15.6071 6.436 15.6206 6.42816 15.634M6.90769 14.8373C6.94112 14.7834 6.97422 14.7302 7.00696 14.6775M12.0909 23.6579C11.9382 23.385 11.7887 23.1269 11.6399 22.8759M7.00843 14.6751L7.00825 14.6754M7.00843 14.6751C6.3556 15.8594 7.00825 14.6754 7.00825 14.6754M9.2958 18.993C9.45271 19.2604 9.6068 19.5231 9.74382 19.7569C10.153 20.455 10.5136 21.0376 10.8542 21.588L10.8542 21.5881C11.1238 22.0237 11.381 22.4392 11.6399 22.8759M9.2958 18.993C8.99444 19.0561 8.72481 19.1473 8.53286 19.2377M12.3232 21.065C12.3232 21.5513 12.3232 22.3122 11.7018 22.8262C11.6815 22.843 11.6608 22.8596 11.6399 22.8759M11.6399 22.8759C11.4221 23.0453 11.1714 23.1869 10.9053 23.3032M8.53286 19.2377C8.783 19.6403 9.04484 20.0693 9.33655 20.5774C9.6204 21.0718 9.81885 21.4274 10.0408 21.8252M8.53286 19.2377C8.17364 18.6595 7.83854 18.1358 7.47375 17.5102M10.0408 21.8252C10.1611 22.0406 10.1864 22.2685 10.3378 22.5375C10.3802 22.6129 10.5236 22.6846 10.5644 22.7534M7.00825 14.6754L7.00696 14.6775M7.00825 14.6754C7.00782 14.6761 7.00739 14.6768 7.00696 14.6775M7.47375 17.5102C6.95591 17.9025 6.30207 18.5091 6.11392 19.1795C5.85543 20.1006 5.919 20.8481 6.38379 21.7018C7.45383 23.6671 10.5693 22.9972 10.606 22.8262L10.5644 22.7534M7.47375 17.5102C7.32063 17.2477 7.16227 16.9672 6.99471 16.6572C6.79135 16.281 6.60446 15.9478 6.42816 15.634M10.5644 22.7534C10.6693 22.9302 10.7691 23.088 10.8649 23.2395C10.8742 23.2541 10.8835 23.2688 10.8927 23.2833M10.9053 23.3032C9.99376 23.7016 8.89995 23.8031 8.31836 23.7075C6.65531 23.434 6.01046 22.8566 5.16197 21.6106C4.25397 20.2773 4.66541 19.2027 5.09573 18.0787C5.10649 18.0506 5.11726 18.0225 5.12803 17.9943C5.39544 17.2944 5.71154 16.7909 6.0427 16.2634C6.16961 16.0612 6.29872 15.8556 6.42816 15.634M10.9053 23.3032L10.8927 23.2833M10.9053 23.3032C10.9011 23.2966 10.8969 23.29 10.8927 23.2833" stroke="black" stroke-width="0.0677137"/>
<path d="M2.0392 23.3686C2.0392 23.3686 5.12829 19.3068 9.13093 17.3449C13.1336 15.383 20.847 15.1729 25.4505 12.9019C28.6546 11.3212 29.8935 10.2959 29.8935 10.2959" stroke="black" stroke-width="0.768983" stroke-linecap="round"/>
<path d="M4.47432 26.06C4.47432 26.06 6.58513 22.71 10.9252 20.5917C15.2653 18.4733 18.8822 17.4023 23.3144 16.2341C28.8255 14.7816 30.8819 12.2603 30.8819 12.2603" stroke="black" stroke-width="0.768983" stroke-linecap="round"/>
<path d="M7.29393 27.9823C8.74645 26.1026 10.764 24.554 12.2923 23.5393C17.5043 20.0789 26.6467 17.1952 28.4837 16.2767C30.3207 15.3582 31.5759 13.918 31.5759 13.918" stroke="black" stroke-width="0.768983" stroke-linecap="round"/>
<path fill-rule="evenodd" clip-rule="evenodd" d="M16.3786 18.1468C16.3786 18.1468 15.541 18.239 15.055 18.6668C14.6796 18.9974 14.4629 19.4958 14.6462 20.1153C14.8083 20.6632 15.3272 20.9794 15.7235 21.0252C16.4261 21.1064 17.0178 20.7635 17.2613 20.4177C17.5775 19.9686 17.5684 19.4436 17.5478 19.2168C17.5065 18.7633 16.9785 17.2065 16.9785 17.2065L16.3249 15.2238L16.0208 14.2164L19.1814 11.8147L20.4622 15.7022C20.4622 15.7022 19.8767 15.6345 19.4485 15.8093C19.0203 15.9842 18.841 16.1006 18.6007 16.5714C18.4076 16.9495 18.4336 17.5409 18.9007 18.0645C19.2415 18.4464 19.6751 18.4368 20.2088 18.3279C20.7426 18.219 21.0515 17.827 21.2771 17.4418C21.6097 16.8739 21.5428 16.428 21.3989 15.8105C21.1929 14.9266 20.7051 13.5988 20.7051 13.5988L19.1994 8.93737L14.536 12.4368L16.3786 18.1468ZM18.798 10.5737L15.6312 13.0121L15.7832 13.5158L18.9891 11.0819L18.798 10.5737Z" fill="black" stroke="black" stroke-width="0.0693511"/>
<path d="M24.4844 18.6511C25.0008 18.2408 25.7182 18.3752 25.7182 18.3752L21.416 10.9362C20.8737 9.87169 21.3939 8.99254 21.5436 8.91227C21.6932 8.83201 22.0367 9.41202 22.2857 9.87221C22.5909 10.4363 22.8985 10.8017 23.2559 11.1222C23.6133 11.4426 24.4216 11.6013 24.7261 11.5832C25.0306 11.5651 25.636 11.4448 26.4009 11.4838C27.1659 11.5227 27.9684 11.9502 28.426 12.418C29.0052 13.0102 29.1175 13.3406 29.327 13.9572L29.3332 13.9753C29.6677 14.9595 29.7192 16.1458 29.7247 16.272C29.7302 16.3982 29.7485 16.8189 29.5962 16.828C29.444 16.837 29.3117 16.0601 29.1282 15.7169C28.7128 14.9401 28.5441 14.5705 27.9113 14.0598C27.2785 13.549 26.809 13.2816 25.9606 13.0789C25.0121 12.8523 24.1624 12.9748 24.1624 12.9748L27.022 18.5448C27.022 18.5448 27.2796 19.2212 27.0505 19.9019C26.8213 20.5827 26.3309 21.2027 25.6159 21.4168C24.9008 21.6308 24.2335 21.3791 23.8883 20.5661C23.543 19.7532 23.9679 19.0614 24.4844 18.6511Z" fill="black" stroke="black" stroke-width="0.061926"/>
</svg>
